<svg width="501" height="159" viewBox="0 0 501 159" fill="none" xmlns="http://www.w3.org/2000/svg">
	<path fill-rule="evenodd" clip-rule="evenodd" d="M3.45774 0.499804C2.07704 0.499806 0.957764 1.6191 0.957731 2.9998C0.957755 5.04853 1.00451 7.08115 1.09683 9.09698C1.16006 10.4763 2.32939 11.5431 3.70867 11.48C5.08791 11.4168 6.15484 10.2474 6.09164 8.86816C6.00281 6.92878 5.95778 4.97245 5.95776 2.99981C5.95777 1.6191 4.83844 0.499802 3.45774 0.499804ZM4.34412 18.3552C2.97682 18.5471 2.02397 19.8112 2.21591 21.1785C2.78724 25.2482 3.54783 29.2376 4.487 33.1405C4.81005 34.4828 6.16013 35.3092 7.50252 34.9862C8.84491 34.6632 9.67127 33.3131 9.34826 31.9707C8.44678 28.2244 7.71627 24.3934 7.16739 20.4834C6.97544 19.1161 5.71142 18.1633 4.34412 18.3552ZM295.282 82.9164C299.267 83.4881 303.237 84.2452 307.177 85.189C308.52 85.5106 309.869 84.6828 310.191 83.3401C310.512 81.9973 309.684 80.6481 308.342 80.3265C304.251 79.3466 300.13 78.5606 295.992 77.9671C294.625 77.771 293.358 78.7201 293.162 80.0868C292.966 81.4535 293.915 82.7204 295.282 82.9164ZM285.848 79.3814C285.917 78.0024 284.855 76.8287 283.476 76.7599C279.284 76.5506 275.088 76.5359 270.902 76.7145C269.523 76.7734 268.452 77.9394 268.511 79.3188C268.57 80.6983 269.736 81.7688 271.116 81.71C275.147 81.5379 279.189 81.5521 283.227 81.7536C284.606 81.8225 285.779 80.7604 285.848 79.3814ZM317.249 85.3804C316.804 86.6876 317.504 88.1076 318.811 88.5519C320.718 89.2003 322.616 89.8942 324.501 90.6339L329.893 92.7493C331.178 93.2536 332.629 92.6204 333.133 91.3351C333.638 90.0498 333.004 88.599 331.719 88.0947L326.327 85.9793C324.37 85.2114 322.4 84.491 320.42 83.818C319.113 83.3736 317.693 84.0731 317.249 85.3804ZM339.263 93.7398C338.758 95.0251 339.392 96.4759 340.677 96.9801L351.461 101.211C352.746 101.715 354.197 101.082 354.701 99.7967C355.206 98.5114 354.572 97.0606 353.287 96.5563L342.503 92.3255C341.218 91.8213 339.767 92.4545 339.263 93.7398ZM261.193 79.9711C261.007 78.603 259.747 77.6447 258.379 77.8307C254.228 78.3951 250.101 79.1516 246.012 80.0989C244.666 80.4105 243.829 81.7536 244.14 83.0987C244.452 84.4437 245.795 85.2815 247.14 84.9699C251.079 84.0574 255.054 83.3288 259.052 82.7851C260.421 82.5991 261.379 81.3392 261.193 79.9711ZM360.831 102.201C360.326 103.487 360.96 104.937 362.245 105.442L373.029 109.673C374.314 110.177 375.765 109.544 376.269 108.258C376.774 106.973 376.14 105.522 374.855 105.018L364.071 100.787C362.786 100.283 361.335 100.916 360.831 102.201ZM9.44785 41.6243C8.14359 42.0774 7.45357 43.502 7.90662 44.8062C9.24889 48.6702 10.7717 52.4331 12.4628 56.0882C13.0426 57.3413 14.5284 57.8872 15.7815 57.3074C17.0346 56.7276 17.5804 55.2418 17.0006 53.9887C15.3784 50.4824 13.9175 46.8725 12.6298 43.1655C12.1767 41.8612 10.7521 41.1712 9.44785 41.6243ZM382.399 110.663C381.894 111.948 382.528 113.399 383.813 113.903L394.597 118.134C395.882 118.638 397.333 118.005 397.837 116.72C398.342 115.435 397.708 113.984 396.423 113.48L385.639 109.249C384.354 108.745 382.903 109.378 382.399 110.663ZM237.066 85.0864C236.632 83.7759 235.217 83.0659 233.906 83.5005C229.939 84.8165 226.022 86.319 222.169 88.0068C220.904 88.5608 220.328 90.0352 220.882 91.2999C221.436 92.5646 222.91 93.1407 224.175 92.5867C227.886 90.961 231.659 89.5138 235.48 88.2463C236.791 87.8117 237.501 86.3969 237.066 85.0864ZM403.967 119.125C403.462 120.41 404.096 121.861 405.381 122.365L416.165 126.596C417.45 127.1 418.901 126.467 419.405 125.182C419.909 123.896 419.276 122.445 417.991 121.941L407.207 117.71C405.922 117.206 404.471 117.839 403.967 119.125ZM425.535 127.586C425.03 128.872 425.663 130.322 426.949 130.827L437.733 135.057C439.018 135.562 440.469 134.929 440.973 133.643C441.477 132.358 440.844 130.907 439.559 130.403L428.775 126.172C427.49 125.668 426.039 126.301 425.535 127.586ZM447.103 136.048C446.598 137.333 447.231 138.784 448.517 139.288L459.301 143.519C460.586 144.023 462.037 143.39 462.541 142.105C463.045 140.819 462.412 139.369 461.127 138.864L450.343 134.634C449.058 134.129 447.607 134.763 447.103 136.048ZM214.296 94.5562C213.627 93.3482 212.106 92.9108 210.898 93.5793C209.068 94.592 207.257 95.6493 205.466 96.7513L201.691 99.0747C200.515 99.7983 200.148 101.338 200.872 102.514C201.595 103.69 203.135 104.057 204.311 103.333L208.087 101.01C209.812 99.9481 211.556 98.9295 213.319 97.9541C214.527 97.2856 214.964 95.7643 214.296 94.5562ZM468.67 144.509C468.166 145.795 468.799 147.246 470.085 147.75L480.869 151.981C482.154 152.485 483.605 151.852 484.109 150.566C484.613 149.281 483.98 147.83 482.695 147.326L471.911 143.095C470.625 142.591 469.175 143.224 468.67 144.509ZM18.9961 63.4394C17.8064 64.14 17.4099 65.6725 18.1106 66.8622C20.1785 70.3735 22.4096 73.7641 24.7907 77.0265C25.6047 78.1418 27.1687 78.386 28.284 77.5721C29.3992 76.7581 29.6434 75.1941 28.8295 74.0789C26.544 70.9475 24.403 67.6939 22.4189 64.3249C21.7183 63.1352 20.1858 62.7387 18.9961 63.4394ZM490.238 152.971C489.734 154.256 490.367 155.707 491.653 156.211L497.045 158.327C498.33 158.831 499.781 158.198 500.285 156.913C500.789 155.627 500.156 154.177 498.871 153.672L493.479 151.557C492.193 151.053 490.743 151.686 490.238 152.971ZM197.579 104.541C196.855 103.365 195.315 102.998 194.139 103.722L190.364 106.045C188.684 107.079 186.994 108.066 185.296 109.007C184.088 109.676 183.651 111.197 184.32 112.405C184.989 113.613 186.511 114.049 187.719 113.38C189.484 112.403 191.239 111.377 192.984 110.303L196.76 107.98C197.936 107.256 198.302 105.716 197.579 104.541ZM32.6343 82.9598C31.6034 83.8782 31.5122 85.4585 32.4306 86.4894C35.1337 89.5236 37.9769 92.4189 40.9464 95.1678C41.9597 96.1057 43.5414 96.0447 44.4793 95.0315C45.4173 94.0182 45.3562 92.4365 44.343 91.4986C41.4903 88.8579 38.7596 86.077 36.1639 83.1635C35.2455 82.1325 33.6652 82.0413 32.6343 82.9598ZM178.132 115.467C177.579 114.202 176.105 113.625 174.84 114.178C171.222 115.76 167.577 117.145 163.914 118.341C162.601 118.769 161.884 120.181 162.313 121.493C162.741 122.806 164.153 123.523 165.465 123.094C169.281 121.849 173.077 120.406 176.843 118.759C178.108 118.206 178.685 116.732 178.132 115.467ZM49.78 99.4876C48.9427 100.585 49.154 102.154 50.2519 102.991C53.4772 105.451 56.8165 107.755 60.2558 109.896C61.428 110.626 62.9697 110.267 63.6994 109.095C64.4291 107.923 64.0704 106.381 62.8983 105.652C59.5926 103.594 56.3833 101.379 53.2838 99.0157C52.1859 98.1784 50.6172 98.3897 49.78 99.4876ZM155.64 123.316C155.342 121.967 154.008 121.116 152.66 121.413C148.828 122.26 144.987 122.907 141.151 123.363C139.78 123.526 138.801 124.77 138.964 126.141C139.127 127.512 140.37 128.491 141.741 128.328C145.741 127.853 149.743 127.178 153.738 126.296C155.086 125.998 155.937 124.664 155.64 123.316ZM69.7445 112.473C69.1286 113.709 69.6312 115.21 70.8669 115.826C74.4929 117.633 78.2054 119.269 81.9906 120.727C83.2791 121.223 84.7258 120.581 85.2221 119.292C85.7183 118.004 85.0761 116.557 83.7876 116.061C80.1502 114.66 76.5822 113.088 73.0971 111.351C71.8613 110.735 70.3603 111.237 69.7445 112.473ZM132.057 126.617C132.03 125.237 130.889 124.139 129.509 124.166C125.599 124.242 121.706 124.124 117.842 123.819C116.465 123.71 115.261 124.737 115.153 126.114C115.044 127.49 116.072 128.694 117.448 128.803C121.474 129.121 125.531 129.244 129.606 129.165C130.986 129.138 132.083 127.998 132.057 126.617ZM91.7952 121.471C91.4239 122.801 92.2009 124.18 93.5307 124.552C97.4281 125.64 101.384 126.544 105.385 127.256C106.744 127.498 108.042 126.592 108.284 125.233C108.526 123.873 107.62 122.575 106.261 122.333C102.419 121.65 98.6196 120.781 94.8755 119.736C93.5457 119.365 92.1666 120.142 91.7952 121.471Z" fill="#343434"/>
</svg>
