<svg width="610" height="161" viewBox="0 0 610 161" fill="none" xmlns="http://www.w3.org/2000/svg">
	<path fill-rule="evenodd" clip-rule="evenodd" d="M168.875 60.6547C168.642 59.2938 169.556 58.0014 170.916 57.7678C174.819 57.098 178.739 56.5479 182.669 56.1178C184.041 55.9676 185.275 56.9584 185.426 58.331C185.576 59.7035 184.585 60.9379 183.213 61.0881C179.383 61.5072 175.565 62.0431 171.762 62.6957C170.401 62.9293 169.109 62.0155 168.875 60.6547ZM162.294 61.9919C162.61 63.336 161.777 64.6818 160.433 64.9979C156.687 65.8789 152.962 66.8754 149.264 67.9871C147.942 68.3847 146.548 67.6351 146.15 66.3129C145.753 64.9907 146.502 63.5965 147.825 63.1989C151.62 62.0577 155.443 61.0349 159.288 60.1307C160.632 59.8146 161.978 60.6479 162.294 61.9919ZM192.121 57.8039C192.055 56.4248 193.119 55.2529 194.498 55.1865C198.45 54.9962 202.407 54.9263 206.363 54.9768C207.744 54.9945 208.849 56.128 208.831 57.5086C208.813 58.8892 207.68 59.9941 206.299 59.9764C202.445 59.9272 198.589 59.9953 194.739 60.1807C193.36 60.2471 192.188 59.183 192.121 57.8039ZM139.779 68.443C140.257 69.7384 139.594 71.1758 138.298 71.6535C134.692 72.9832 131.118 74.4262 127.58 75.9822C126.316 76.5382 124.841 75.9644 124.285 74.7006C123.729 73.4367 124.303 71.9615 125.567 71.4055C129.198 69.8083 132.867 68.3271 136.569 66.9622C137.864 66.4846 139.302 67.1475 139.779 68.443ZM215.541 57.7988C215.643 56.4218 216.841 55.3879 218.218 55.4896C222.161 55.7806 226.097 56.1918 230.021 56.7233C231.39 56.9086 232.349 58.168 232.163 59.5362C231.978 60.9044 230.718 61.8634 229.35 61.678C225.527 61.1602 221.692 60.7595 217.85 60.476C216.473 60.3744 215.439 59.1757 215.541 57.7988ZM118.221 77.5931C118.853 78.8206 118.37 80.3281 117.143 80.9604C113.73 82.7183 110.358 84.5863 107.033 86.5644C105.847 87.2704 104.312 86.8807 103.607 85.6941C102.901 84.5075 103.29 82.9733 104.477 82.2674C107.889 80.2371 111.35 78.3197 114.853 76.5153C116.081 75.8831 117.588 76.3656 118.221 77.5931ZM238.788 60.6401C239.056 59.2858 240.372 58.4054 241.726 58.6738C245.601 59.4417 249.457 60.3287 253.291 61.3351C254.626 61.6857 255.424 63.0525 255.074 64.388C254.723 65.7234 253.356 66.5218 252.021 66.1712C248.286 65.1908 244.529 64.3265 240.754 63.5784C239.4 63.31 238.519 61.9945 238.788 60.6401ZM97.9409 89.3029C98.7177 90.4444 98.4221 91.9994 97.2807 92.7763C95.6901 93.8588 94.1119 94.968 92.547 96.104L88.1294 99.3106C87.012 100.122 85.4487 99.8734 84.6376 98.756C83.8265 97.6387 84.0749 96.0753 85.1922 95.2643L89.6098 92.0576C91.2157 90.8919 92.8352 89.7536 94.4676 88.6427C95.609 87.8659 97.1641 88.1615 97.9409 89.3029ZM608.077 0.611281C609.239 1.35762 609.576 2.90432 608.829 4.06593L606.021 8.43637C605.275 9.59798 603.728 9.93463 602.567 9.1883C601.405 8.44196 601.068 6.89527 601.815 5.73364L604.623 1.36321C605.369 0.201603 606.916 -0.135044 608.077 0.611281ZM261.516 66.2916C261.948 64.9801 263.361 64.2668 264.672 64.6983C268.42 65.9316 272.139 67.2822 275.824 68.7501C277.107 69.2611 277.733 70.7151 277.222 71.9978C276.711 73.2805 275.257 73.9061 273.974 73.3951C270.384 71.965 266.761 70.6493 263.11 69.4478C261.798 69.0162 261.085 67.6032 261.516 66.2916ZM79.8488 102.232C80.6598 103.35 80.4115 104.913 79.2942 105.724L70.4589 112.137C69.3416 112.948 67.7782 112.7 66.9672 111.583C66.1561 110.465 66.4044 108.902 67.5218 108.091L76.357 101.678C77.4744 100.866 79.0377 101.115 79.8488 102.232ZM599.653 13.7226C600.815 14.4689 601.152 16.0156 600.405 17.1772L594.789 25.9181C594.043 27.0797 592.496 27.4164 591.335 26.67C590.173 25.9237 589.836 24.377 590.583 23.2154L596.199 14.4745C596.945 13.3129 598.492 12.9763 599.653 13.7226ZM283.385 74.6743C283.973 73.4252 285.463 72.8897 286.712 73.4782C290.277 75.1577 293.803 76.9516 297.285 78.86C298.496 79.5236 298.94 81.0431 298.276 82.2539C297.612 83.4647 296.093 83.9083 294.882 83.2447C291.489 81.3853 288.054 79.6376 284.581 78.0014C283.332 77.4129 282.796 75.9233 283.385 74.6743ZM62.1783 115.059C62.9894 116.176 62.7411 117.739 61.6237 118.551L52.7885 124.964C51.6711 125.775 50.1078 125.527 49.2967 124.409C48.4856 123.292 48.7339 121.729 49.8513 120.918L58.6865 114.504C59.8039 113.693 61.3672 113.941 62.1783 115.059ZM44.5078 127.885C45.3189 129.003 45.0706 130.566 43.9532 131.377L35.118 137.791C34.0006 138.602 32.4373 138.353 31.6262 137.236C30.8152 136.119 31.0635 134.555 32.1808 133.744L41.0161 127.331C42.1334 126.52 43.6968 126.768 44.5078 127.885ZM588.421 31.2043C589.583 31.9507 589.92 33.4974 589.173 34.659L586.365 39.0294C585.286 40.7093 584.185 42.367 583.063 44.0023C582.283 45.1409 580.726 45.4309 579.588 44.6499C578.449 43.8689 578.159 42.3128 578.94 41.1742C580.033 39.5802 581.107 37.9643 582.159 36.3267L584.967 31.9563C585.713 30.7947 587.26 30.458 588.421 31.2043ZM304.065 85.6602C304.801 84.492 306.345 84.1417 307.513 84.8777C309.184 85.9302 310.843 87.0106 312.489 88.1188L313.591 88.8611C313.996 89.1339 314.296 89.5046 314.48 89.9205C314.935 89.9347 315.391 90.073 315.796 90.3458L316.899 91.0881C318.514 92.1751 320.139 93.2339 321.774 94.2646C322.942 95.0009 323.292 96.5446 322.556 97.7127C321.82 98.8807 320.276 99.2307 319.108 98.4944C317.43 97.437 315.763 96.3508 314.107 95.2357L313.004 94.4934C312.599 94.2206 312.299 93.8499 312.115 93.434C311.66 93.4198 311.204 93.2815 310.799 93.0087L309.696 92.2664C308.092 91.1865 306.476 90.1337 304.848 89.1081C303.68 88.3721 303.33 86.8284 304.065 85.6602ZM26.8374 140.712C27.6484 141.829 27.4001 143.393 26.2828 144.204L17.4475 150.617C16.3302 151.428 14.7669 151.18 13.9558 150.063C13.1447 148.945 13.393 147.382 14.5104 146.571L23.3456 140.157C24.463 139.346 26.0263 139.595 26.8374 140.712ZM575.6 50.1031C576.689 50.9516 576.885 52.5224 576.036 53.6117C573.584 56.7603 571.049 59.815 568.438 62.7748C567.525 63.8102 565.945 63.9091 564.91 62.9957C563.874 62.0823 563.775 60.5025 564.689 59.4671C567.232 56.5835 569.702 53.6072 572.092 50.5391C572.94 49.4498 574.511 49.2546 575.6 50.1031ZM9.16691 153.539C9.97798 154.656 9.72968 156.219 8.61231 157.03L4.1947 160.237C3.07732 161.048 1.51401 160.8 0.70293 159.683C-0.108148 158.565 0.140154 157.002 1.25753 156.191L5.67514 152.984C6.79251 152.173 8.35583 152.421 9.16691 153.539ZM328.377 101.141C329.041 99.9304 330.561 99.4876 331.771 100.152C335.181 102.023 338.627 103.778 342.105 105.418C343.353 106.007 343.888 107.497 343.299 108.746C342.71 109.995 341.22 110.529 339.972 109.94C336.402 108.257 332.865 106.455 329.366 104.535C328.156 103.871 327.713 102.351 328.377 101.141ZM560.281 67.9281C561.258 68.9034 561.26 70.4863 560.285 71.4636C557.467 74.2873 554.574 77.0109 551.612 79.6333C550.578 80.5486 548.998 80.4525 548.083 79.4187C547.168 78.385 547.264 76.805 548.298 75.8897C551.183 73.3353 554.001 70.6822 556.746 67.9316C557.721 66.9543 559.304 66.9527 560.281 67.9281ZM349.502 111.442C350.014 110.16 351.468 109.534 352.75 110.045C356.36 111.484 359.998 112.804 363.659 114.007C364.971 114.438 365.685 115.851 365.254 117.163C364.823 118.475 363.41 119.188 362.098 118.757C358.34 117.522 354.605 116.167 350.899 114.69C349.617 114.179 348.991 112.725 349.502 111.442ZM542.886 83.7411C543.736 84.8294 543.543 86.4004 542.454 87.2502C539.315 89.7011 536.111 92.0468 532.846 94.2861C531.707 95.0671 530.151 94.7772 529.37 93.6386C528.589 92.5 528.879 90.9439 530.018 90.1629C533.198 87.9815 536.32 85.6966 539.377 83.3092C540.466 82.4594 542.037 82.6528 542.886 83.7411ZM371.737 119.074C372.087 117.738 373.453 116.938 374.788 117.288C378.542 118.269 382.313 119.131 386.097 119.875C387.452 120.141 388.334 121.455 388.068 122.81C387.802 124.164 386.487 125.047 385.133 124.781C381.248 124.017 377.377 123.132 373.524 122.125C372.188 121.776 371.388 120.41 371.737 119.074ZM523.681 97.2884C524.391 98.4729 524.006 100.008 522.821 100.718C519.407 102.763 515.937 104.698 512.418 106.522C511.192 107.157 509.683 106.679 509.048 105.453C508.412 104.227 508.891 102.718 510.117 102.083C513.546 100.305 516.926 98.4202 520.252 96.4282C521.436 95.7187 522.972 96.1038 523.681 97.2884ZM394.737 123.908C394.919 122.54 396.177 121.578 397.545 121.76C401.388 122.272 405.239 122.665 409.091 122.939C410.469 123.037 411.506 124.233 411.408 125.61C411.31 126.987 410.114 128.024 408.737 127.926C404.782 127.645 400.83 127.242 396.885 126.716C395.516 126.534 394.555 125.277 394.737 123.908ZM502.953 108.378C503.512 109.64 502.942 111.117 501.68 111.676C498.045 113.286 494.366 114.782 490.649 116.164C489.354 116.645 487.915 115.986 487.434 114.692C486.953 113.397 487.612 111.958 488.907 111.477C492.529 110.131 496.114 108.673 499.655 107.105C500.918 106.545 502.394 107.116 502.953 108.378ZM418.162 125.883C418.176 124.502 419.306 123.394 420.686 123.407C424.559 123.445 428.428 123.364 432.288 123.166C433.667 123.095 434.842 124.156 434.913 125.534C434.984 126.913 433.923 128.089 432.544 128.159C428.583 128.363 424.612 128.446 420.638 128.407C419.257 128.394 418.149 127.263 418.162 125.883ZM481.029 116.852C481.43 118.174 480.685 119.57 479.363 119.971C475.563 121.126 471.729 122.164 467.867 123.084C466.524 123.404 465.176 122.575 464.856 121.232C464.536 119.889 465.365 118.54 466.708 118.22C470.471 117.323 474.207 116.312 477.91 115.187C479.231 114.786 480.628 115.531 481.029 116.852ZM441.65 124.982C441.495 123.61 442.482 122.372 443.854 122.218C447.701 121.784 451.532 121.233 455.342 120.567C456.702 120.329 457.998 121.239 458.235 122.599C458.473 123.959 457.564 125.254 456.204 125.492C452.293 126.176 448.362 126.741 444.414 127.186C443.042 127.341 441.805 126.354 441.65 124.982Z" fill="#343434"/>
</svg>
