<svg width="170" height="271" viewBox="0 0 170 271" fill="none" xmlns="http://www.w3.org/2000/svg">
	<path fill-rule="evenodd" clip-rule="evenodd" d="M93.8767 0.725639C95.2575 0.725639 96.3767 1.84493 96.3768 3.22564L96.3768 83.77C96.3768 107.725 109.976 129.603 131.456 140.206C195.282 171.712 173.842 267.698 102.675 269.05L2.96742 270.944C1.58696 270.97 0.446616 269.872 0.420394 268.491C0.39417 267.111 1.492 265.971 2.87246 265.944L102.58 264.05C168.509 262.798 188.372 173.876 129.243 144.689C106.056 133.244 91.3768 109.628 91.3768 83.77L91.3767 3.22564C91.3767 1.84493 92.496 0.72564 93.8767 0.725639Z" fill="url(#paint0_linear_3435_111)"/>
	<defs>
		<linearGradient id="paint0_linear_3435_111" x1="-19.7202" y1="156.55" x2="156.955" y2="124.814" gradientUnits="userSpaceOnUse">
			<stop stop-color="#C8E6FF"/>
			<stop offset="0.495" stop-color="#80FFFF"/>
			<stop offset="1" stop-color="#648CFF"/>
		</linearGradient>
	</defs>
</svg>
