<svg width="550" height="166" viewBox="0 0 550 166" fill="none" xmlns="http://www.w3.org/2000/svg">
	<path fill-rule="evenodd" clip-rule="evenodd" d="M3.63857 0.509507C2.26312 0.389154 1.05051 1.40661 0.930129 2.78206C0.746312 4.88278 0.606947 6.97286 0.511043 9.05159C0.447461 10.4308 1.51399 11.6005 2.89325 11.6641C4.2725 11.7277 5.44214 10.6612 5.50579 9.28196C5.59846 7.27196 5.73327 5.2504 5.91115 3.21792C6.03148 1.84245 5.01402 0.629861 3.63857 0.509507ZM2.86077 18.9613C1.48103 19.0136 0.404948 20.1744 0.457244 21.5542C0.617093 25.7707 0.956782 29.9321 1.4681 34.032C1.63901 35.4022 2.88818 36.3743 4.25828 36.2034C5.62837 36.0326 6.60057 34.7834 6.42965 33.4132C5.93608 29.4558 5.60805 25.4377 5.45366 21.3648C5.40136 19.985 4.2405 18.909 2.86077 18.9613ZM5.48027 43.4185C4.13042 43.7087 3.2714 45.0383 3.56161 46.3882C4.44595 50.5015 5.50556 54.5418 6.73124 58.5024C7.13942 59.8214 8.5396 60.5598 9.85856 60.1516C11.1776 59.7434 11.916 58.3433 11.5078 57.0243C10.3254 53.2036 9.30314 49.3058 8.44991 45.3372C8.15971 43.9873 6.83013 43.1283 5.48027 43.4185ZM324.622 122.209C326.628 122.523 328.63 122.874 330.628 123.265L336.622 124.437C337.978 124.702 339.291 123.818 339.556 122.463C339.821 121.108 338.937 119.795 337.582 119.53L331.587 118.358C329.527 117.955 327.462 117.592 325.394 117.269C324.03 117.056 322.751 117.989 322.538 119.353C322.325 120.718 323.258 121.996 324.622 122.209ZM346.638 123.848C346.373 125.203 347.257 126.516 348.612 126.781L360.602 129.125C361.957 129.39 363.27 128.506 363.535 127.151C363.8 125.796 362.916 124.482 361.561 124.217L349.571 121.874C348.216 121.609 346.903 122.493 346.638 123.848ZM370.617 128.535C370.352 129.89 371.236 131.204 372.591 131.468L384.581 133.812C385.936 134.077 387.249 133.193 387.514 131.838C387.779 130.483 386.895 129.17 385.54 128.905L373.551 126.561C372.196 126.296 370.882 127.18 370.617 128.535ZM315.202 118.492C315.31 117.115 314.283 115.912 312.906 115.803C308.721 115.472 304.53 115.302 300.343 115.291C298.962 115.288 297.84 116.404 297.837 117.785C297.833 119.165 298.949 120.288 300.33 120.291C304.39 120.302 308.454 120.467 312.513 120.787C313.889 120.896 315.093 119.868 315.202 118.492ZM394.597 133.223C394.332 134.578 395.215 135.891 396.57 136.156L408.56 138.5C409.915 138.765 411.228 137.881 411.493 136.526C411.758 135.171 410.874 133.858 409.519 133.593L397.53 131.249C396.175 130.984 394.861 131.868 394.597 133.223ZM418.576 137.911C418.311 139.266 419.195 140.579 420.55 140.844L432.539 143.188C433.894 143.452 435.208 142.569 435.473 141.214C435.737 139.859 434.854 138.545 433.499 138.28L421.509 135.937C420.154 135.672 418.841 136.556 418.576 137.911ZM442.555 142.598C442.29 143.953 443.174 145.267 444.529 145.531L456.519 147.875C457.874 148.14 459.187 147.256 459.452 145.901C459.717 144.546 458.833 143.233 457.478 142.968L445.488 140.624C444.133 140.359 442.82 141.243 442.555 142.598ZM466.534 147.286C466.269 148.641 467.153 149.954 468.508 150.219L480.498 152.563C481.853 152.828 483.166 151.944 483.431 150.589C483.696 149.234 482.812 147.921 481.457 147.656L469.467 145.312C468.112 145.047 466.799 145.931 466.534 147.286ZM490.513 151.974C490.249 153.329 491.132 154.642 492.487 154.907L504.477 157.251C505.832 157.515 507.145 156.632 507.41 155.277C507.675 153.922 506.791 152.608 505.436 152.343L493.447 150C492.092 149.735 490.778 150.618 490.513 151.974ZM514.493 156.661C514.228 158.016 515.111 159.33 516.467 159.594L528.456 161.938C529.811 162.203 531.124 161.319 531.389 159.964C531.654 158.609 530.771 157.296 529.415 157.031L517.426 154.687C516.071 154.422 514.758 155.306 514.493 156.661ZM538.472 161.349C538.207 162.704 539.091 164.017 540.446 164.282L546.441 165.454C547.796 165.719 549.109 164.835 549.374 163.48C549.639 162.125 548.755 160.812 547.4 160.547L541.405 159.375C540.05 159.11 538.737 159.994 538.472 161.349ZM290.454 118.047C290.353 116.67 289.154 115.636 287.777 115.737C283.596 116.046 279.428 116.513 275.282 117.138C273.917 117.344 272.977 118.618 273.183 119.983C273.389 121.349 274.663 122.288 276.028 122.082C280.048 121.476 284.09 121.023 288.145 120.724C289.522 120.622 290.556 119.424 290.454 118.047ZM12.3249 67.0279C11.0471 67.551 10.4354 69.0109 10.9586 70.2887C12.5493 74.174 14.3043 77.9682 16.2137 81.6643C16.8475 82.891 18.3556 83.3717 19.5823 82.738C20.809 82.1043 21.2897 80.5961 20.656 79.3694C18.8136 75.8031 17.1204 72.1424 15.5858 68.3942C15.0626 67.1164 13.6026 66.5047 12.3249 67.0279ZM265.926 121.363C265.617 120.017 264.275 119.177 262.93 119.486C258.849 120.424 254.8 121.518 250.792 122.767C249.474 123.178 248.738 124.579 249.149 125.898C249.56 127.216 250.961 127.951 252.279 127.541C256.167 126.329 260.093 125.268 264.05 124.359C265.395 124.05 266.236 122.708 265.926 121.363ZM242.185 128.362C241.676 127.079 240.222 126.452 238.939 126.962C236.994 127.735 235.061 128.547 233.141 129.396L225.292 132.866C224.029 133.425 223.458 134.901 224.016 136.164C224.575 137.427 226.051 137.998 227.314 137.439L235.163 133.968C237.025 133.145 238.899 132.359 240.785 131.609C242.069 131.099 242.695 129.645 242.185 128.362ZM23.218 89.0775C22.0515 89.816 21.7045 91.3604 22.4431 92.527C24.6823 96.0641 27.0695 99.4929 29.5944 102.806C30.4313 103.904 31.9999 104.116 33.0981 103.279C34.1963 102.442 34.4081 100.874 33.5713 99.7755C31.1335 96.5765 28.8289 93.2665 26.6676 89.8525C25.929 88.6859 24.3846 88.3389 23.218 89.0775ZM37.7763 108.898C36.7541 109.826 36.6778 111.407 37.606 112.43C40.415 115.523 43.3529 118.493 46.4091 121.33C47.4211 122.269 49.0029 122.21 49.9422 121.198C50.8816 120.186 50.8227 118.604 49.8108 117.665C46.8585 114.924 44.0207 112.056 41.3077 109.068C40.3796 108.046 38.7985 107.97 37.7763 108.898ZM212.891 141.084C212.333 139.821 210.856 139.25 209.594 139.808L201.744 143.279C199.879 144.104 198.009 144.885 196.137 145.623C194.852 146.129 194.221 147.58 194.727 148.865C195.233 150.15 196.684 150.781 197.969 150.275C199.905 149.512 201.838 148.705 203.767 147.852L211.616 144.381C212.878 143.823 213.449 142.346 212.891 141.084ZM55.507 125.94C54.6569 127.028 54.8498 128.599 55.9377 129.449C59.227 132.019 62.6245 134.449 66.1196 136.731C67.2757 137.486 68.8249 137.161 69.5797 136.005C70.3346 134.849 70.0094 133.3 68.8533 132.545C65.4765 130.34 62.1941 127.992 59.0162 125.509C57.9282 124.659 56.3571 124.852 55.507 125.94ZM187.832 151.254C187.435 149.931 186.042 149.18 184.719 149.577C180.815 150.747 176.906 151.735 173.002 152.547C171.65 152.828 170.782 154.152 171.063 155.503C171.344 156.855 172.668 157.723 174.02 157.442C178.065 156.601 182.113 155.578 186.155 154.366C187.477 153.97 188.228 152.576 187.832 151.254ZM75.8654 139.739C75.2113 140.955 75.6668 142.471 76.8828 143.125C80.5553 145.1 84.3146 146.921 88.1501 148.579C89.4174 149.127 90.889 148.544 91.437 147.277C91.985 146.009 91.4019 144.538 90.1346 143.99C86.4302 142.388 82.799 140.629 79.2514 138.721C78.0354 138.067 76.5194 138.523 75.8654 139.739ZM163.84 156.679C163.679 155.308 162.436 154.327 161.065 154.489C157.033 154.964 153.014 155.256 149.017 155.372C147.636 155.412 146.55 156.563 146.59 157.943C146.63 159.323 147.781 160.41 149.161 160.37C153.306 160.249 157.472 159.947 161.65 159.454C163.021 159.293 164.002 158.05 163.84 156.679ZM98.2663 149.888C97.8293 151.198 98.5367 152.614 99.8464 153.051C103.798 154.369 107.814 155.521 111.885 156.497C113.228 156.818 114.577 155.991 114.899 154.648C115.221 153.306 114.393 151.956 113.051 151.634C109.121 150.692 105.244 149.581 101.429 148.308C100.119 147.871 98.7034 148.578 98.2663 149.888ZM139.286 157.831C139.368 156.453 138.317 155.269 136.939 155.187C132.896 154.946 128.884 154.527 124.914 153.936C123.548 153.732 122.277 154.675 122.073 156.04C121.87 157.406 122.812 158.678 124.178 158.881C128.293 159.494 132.451 159.928 136.641 160.178C138.02 160.26 139.204 159.209 139.286 157.831Z" fill="#343434"/>
</svg>
