<svg width="362" height="167" viewBox="0 0 362 167" fill="none" xmlns="http://www.w3.org/2000/svg">
	<path fill-rule="evenodd" clip-rule="evenodd" d="M359.5 0.504462C358.119 0.504461 357 1.62375 357 3.00446C357 4.90233 356.967 6.7923 356.901 8.67382C356.852 10.0537 357.931 11.2116 359.311 11.2601C360.691 11.3086 361.849 10.2293 361.897 8.84945C361.966 6.90942 362 4.9609 362 3.00446C362 1.62375 360.881 0.504464 359.5 0.504462ZM358.855 17.7351C357.482 17.5892 356.25 18.5839 356.104 19.9568C355.703 23.7341 355.169 27.4714 354.506 31.1643C354.263 32.5233 355.167 33.8225 356.526 34.0662C357.885 34.3099 359.184 33.4057 359.428 32.0466C360.111 28.2368 360.662 24.3814 361.076 20.4854C361.222 19.1124 360.228 17.8811 358.855 17.7351ZM355.152 40.4103C353.814 40.0698 352.453 40.8785 352.113 42.2165C351.178 45.8898 350.115 49.5119 348.929 53.0776C348.493 54.3877 349.201 55.8031 350.512 56.239C351.822 56.6749 353.237 55.9662 353.673 54.6561C354.897 50.9769 355.994 47.2397 356.958 43.4497C357.299 42.1116 356.49 40.7508 355.152 40.4103ZM348.241 62.324C346.965 61.7951 345.503 62.4003 344.974 63.6757C343.525 67.1706 341.954 70.6024 340.267 73.966C339.648 75.2001 340.147 76.7024 341.381 77.3214C342.615 77.9404 344.117 77.4417 344.736 76.2075C346.477 72.7375 348.097 69.1968 349.593 65.591C350.121 64.3156 349.516 62.8529 348.241 62.324ZM338.262 83.0205C337.076 82.3149 335.541 82.7049 334.836 83.8917C332.905 87.1396 330.861 90.3127 328.709 93.4056C327.921 94.539 328.2 96.097 329.334 96.8855C330.467 97.6739 332.025 97.3942 332.814 96.2608C335.033 93.0706 337.141 89.7975 339.133 86.447C339.839 85.2603 339.449 83.7262 338.262 83.0205ZM325.436 102.084C324.362 101.217 322.788 101.385 321.921 102.46C319.55 105.397 317.077 108.249 314.506 111.009C313.565 112.019 313.622 113.601 314.632 114.542C315.642 115.483 317.224 115.427 318.165 114.417C320.816 111.57 323.367 108.629 325.812 105.599C326.679 104.525 326.511 102.951 325.436 102.084ZM310.038 119.136C309.097 118.126 307.515 118.07 306.504 119.011C303.744 121.582 300.893 124.055 297.955 126.425C296.88 127.292 296.712 128.866 297.579 129.941C298.446 131.015 300.02 131.184 301.095 130.317C304.125 127.872 307.066 125.321 309.912 122.67C310.923 121.729 310.979 120.147 310.038 119.136ZM292.381 133.838C291.592 132.705 290.034 132.425 288.901 133.214C285.808 135.365 282.635 137.409 279.387 139.34C278.2 140.046 277.81 141.58 278.516 142.767C279.222 143.954 280.756 144.344 281.942 143.638C285.293 141.646 288.566 139.537 291.756 137.318C292.89 136.53 293.169 134.972 292.381 133.838ZM272.817 145.885C272.198 144.651 270.696 144.152 269.461 144.771C266.098 146.458 262.666 148.029 259.171 149.478C257.896 150.007 257.291 151.47 257.819 152.745C258.348 154.021 259.811 154.626 261.086 154.097C264.692 152.602 268.233 150.981 271.703 149.241C272.937 148.622 273.436 147.12 272.817 145.885ZM251.734 155.016C251.299 153.706 249.883 152.997 248.573 153.433C245.007 154.62 241.385 155.683 237.712 156.617C236.374 156.958 235.565 158.319 235.906 159.657C236.246 160.995 237.607 161.803 238.945 161.463C242.735 160.498 246.472 159.402 250.151 158.177C251.462 157.742 252.17 156.326 251.734 155.016ZM229.562 161.031C229.318 159.672 228.019 158.767 226.66 159.011C222.967 159.673 219.229 160.207 215.452 160.609C214.079 160.755 213.085 161.986 213.231 163.359C213.376 164.732 214.608 165.727 215.981 165.581C219.877 165.167 223.732 164.616 227.542 163.933C228.901 163.689 229.805 162.39 229.562 161.031ZM206.756 163.816C206.707 162.436 205.549 161.357 204.169 161.405C202.288 161.471 200.398 161.505 198.5 161.505L192.39 161.505C191.01 161.505 189.89 162.624 189.89 164.005C189.89 165.385 191.01 166.505 192.39 166.505L198.5 166.505C200.456 166.505 202.405 166.47 204.345 166.402C205.725 166.353 206.804 165.196 206.756 163.816ZM182.672 164.005C182.672 162.624 181.552 161.505 180.172 161.505L167.953 161.505C166.572 161.505 165.453 162.624 165.453 164.005C165.453 165.385 166.572 166.505 167.953 166.505L180.172 166.505C181.552 166.505 182.672 165.385 182.672 164.005ZM158.234 164.005C158.234 162.624 157.115 161.505 155.734 161.505L143.516 161.505C142.135 161.504 141.016 162.624 141.016 164.004C141.016 165.385 142.135 166.504 143.516 166.505L155.734 166.505C157.115 166.505 158.234 165.385 158.234 164.005ZM133.797 164.004C133.797 162.624 132.678 161.504 131.297 161.504L119.078 161.504C117.697 161.504 116.578 162.624 116.578 164.004C116.578 165.385 117.697 166.504 119.078 166.504L131.297 166.504C132.677 166.504 133.797 165.385 133.797 164.004ZM109.359 164.004C109.359 162.624 108.24 161.504 106.859 161.504L94.6406 161.504C93.2598 161.504 92.1406 162.624 92.1406 164.004C92.1406 165.385 93.2598 166.504 94.6406 166.504L106.859 166.504C108.24 166.504 109.359 165.385 109.359 164.004ZM84.9218 164.004C84.9218 162.624 83.8025 161.504 82.4218 161.504L70.2031 161.504C68.8224 161.504 67.7031 162.624 67.7031 164.004C67.7031 165.385 68.8224 166.504 70.2031 166.504L82.4218 166.504C83.8025 166.504 84.9218 165.385 84.9218 164.004ZM60.4843 164.004C60.4843 162.624 59.3651 161.504 57.9843 161.504L45.7656 161.504C44.3849 161.504 43.2656 162.624 43.2656 164.004C43.2656 165.385 44.3849 166.504 45.7656 166.504L57.9843 166.504C59.365 166.504 60.4843 165.385 60.4843 164.004ZM36.0469 164.004C36.0469 162.624 34.9276 161.504 33.5469 161.504L21.3281 161.504C19.9474 161.504 18.8281 162.624 18.8281 164.004C18.8281 165.385 19.9474 166.504 21.3281 166.504L33.5468 166.504C34.9276 166.504 36.0469 165.385 36.0469 164.004ZM11.6094 164.004C11.6094 162.624 10.4901 161.504 9.10939 161.504L2.99999 161.504C1.6193 161.504 0.499992 162.624 0.500019 164.004C0.500016 165.385 1.61929 166.504 3.00001 166.504L9.10938 166.504C10.4901 166.504 11.6094 165.385 11.6094 164.004Z" fill="#343434"/>
</svg>
