<svg width="16" height="16" viewBox="0 0 16 16" fill="none" xmlns="http://www.w3.org/2000/svg">
	<circle cx="8" cy="8" r="8" fill="#F3BA2F"/>
	<path d="M9.05397 11.7467V12.9729L7.98484 13.6012L6.94611 12.9729V11.7467L7.98484 12.375L9.05397 11.7467ZM3.33337 7.50569L4.3721 8.13399V10.2368L6.16074 11.3059V12.5321L3.33337 10.8651V7.50569ZM12.6363 7.50569V10.8701L9.77854 12.5372V11.311L11.5672 10.2418V8.13906L12.6363 7.50569ZM9.77348 5.83866L10.8426 6.46696V7.69317L9.05397 8.76229V10.8955L8.01524 11.5238L6.98158 10.8955V8.75723L5.12708 7.6881V6.4619L6.1962 5.8336L7.98484 6.90272L9.77348 5.83866ZM5.12708 8.56975L6.1658 9.19805V10.4243L5.12708 9.79595V8.56975ZM10.8426 8.56975V9.79595L9.80388 10.4243V9.19805L10.8426 8.56975ZM4.3721 4.76953L5.44123 5.39784L4.3721 6.02614V7.25234L3.33337 6.62404V5.39784L4.3721 4.76953ZM11.5976 4.76953L12.6667 5.39784V6.62404L11.5976 7.25234V6.02614L10.5589 5.39784L11.5976 4.76953ZM7.98484 4.76953L9.05397 5.39784L7.98484 6.02614L6.94611 5.39784L7.98484 4.76953ZM7.98484 2.66675L10.8426 4.33378L9.80388 4.96208L8.01524 3.89295L6.19114 4.96208L5.15241 4.33378L7.98484 2.66675Z" fill="white"/>
</svg>
