<svg width="314" height="56" viewBox="0 0 314 56" fill="none" xmlns="http://www.w3.org/2000/svg">
	<g clip-path="url(#clip0_3029_981)">
		<path d="M0 35.5105C0 24.9306 8.81162 16.354 19.6813 16.354L52.746 16.354C63.6156 16.354 72.4273 24.9306 72.4273 35.5105C72.4273 46.0903 63.6156 54.667 52.746 54.667L19.6813 54.667C8.81162 54.667 0 46.0903 0 35.5105Z" fill="white"/>
		<path d="M0 35.5105C0 24.9306 8.81162 16.354 19.6813 16.354L52.746 16.354C63.6156 16.354 72.4273 24.9306 72.4273 35.5105C72.4273 46.0903 63.6156 54.667 52.746 54.667L19.6813 54.667C8.81162 54.667 0 46.0903 0 35.5105Z" fill="url(#paint0_linear_3029_981)"/>
		<path d="M26.7673 35.512C26.7673 27.396 33.4643 20.8167 41.7252 20.8167L51.1721 20.8167C59.4333 20.8167 66.13 27.396 66.13 35.512C66.13 43.628 59.4333 50.2075 51.1721 50.2075H41.7252C33.4643 50.2075 26.7673 43.628 26.7673 35.512Z" fill="#1A1D22"/>
		<path d="M99.3012 25.1908C98.2742 25.6043 97.3419 26.2297 96.5631 27.0276C95.7573 27.948 95.1142 29.0039 94.6626 30.1481C94.1575 31.4865 93.914 32.9127 93.9463 34.3463C93.8993 35.779 94.1289 37.2075 94.6221 38.5502C95.0585 39.7029 95.6921 40.7673 96.4938 41.6942C97.2812 42.5284 98.2289 43.1879 99.2782 43.6314C100.367 44.0673 101.528 44.2911 102.698 44.2908C103.747 44.3038 104.79 44.1161 105.771 43.7373C106.637 43.4345 107.444 42.9802 108.157 42.3949C108.785 41.8604 109.31 41.2115 109.705 40.4815C109.92 40.1213 110.113 39.7477 110.283 39.3626C110.393 39.1115 110.592 38.9117 110.84 38.8028C111.088 38.6937 111.367 38.6834 111.623 38.7739L117.809 40.9111C118.082 41.0039 118.307 41.2028 118.436 41.4644C118.565 41.7258 118.587 42.0287 118.497 42.3066C118.112 43.4349 117.596 44.5121 116.96 45.5154C116.044 46.9468 114.905 48.2155 113.587 49.2719C112.159 50.4511 110.548 51.3802 108.821 52.0215C106.833 52.6996 104.747 53.028 102.652 52.993C100.234 53.0159 97.8387 52.5121 95.6272 51.5151C93.4649 50.6345 91.5 49.3165 89.8507 47.641C88.1962 45.9446 86.8903 43.9288 86.0093 41.7119C85.0792 39.357 84.6178 36.8375 84.6516 34.2991C84.6474 31.7372 85.1339 29.1993 86.0843 26.8276C86.9376 24.6393 88.2184 22.6506 89.8489 20.9827C91.4794 19.3147 93.4257 18.002 95.5694 17.1244C97.7881 16.2078 100.166 15.7592 102.559 15.8055C104.695 15.7997 106.818 16.1477 108.844 16.8359C110.549 17.4977 112.146 18.4188 113.581 19.5678C114.886 20.6191 115.992 21.904 116.845 23.3596C117.463 24.3987 117.967 25.5044 118.347 26.6569C118.434 26.934 118.41 27.2352 118.28 27.4944C118.15 27.7538 117.925 27.95 117.654 28.0403L111.299 30.1719C111.035 30.2588 110.747 30.2395 110.496 30.1181C110.245 29.9967 110.049 29.7821 109.948 29.5183C109.48 28.3676 108.792 27.323 107.926 26.4447C106.77 25.226 105.003 24.5784 102.698 24.5665C101.537 24.5553 100.385 24.7672 99.3012 25.1908Z" fill="white"/>
		<path d="M121.176 50.8955L121.424 1.55563C121.425 1.41027 121.454 1.26648 121.509 1.13248C121.565 0.998475 121.645 0.876884 121.747 0.774643C121.848 0.672405 121.968 0.591519 122.1 0.536607C122.232 0.481694 122.374 0.453831 122.516 0.454606L129.639 0.489933C129.926 0.494549 130.2 0.613641 130.402 0.821668C130.604 1.02969 130.718 1.31009 130.719 1.60273L130.638 17.4115C130.636 17.6127 130.688 17.8107 130.788 17.984C130.888 18.1574 131.033 18.2994 131.207 18.3946C131.381 18.4899 131.577 18.5348 131.774 18.5245C131.971 18.5141 132.162 18.4489 132.325 18.3359C133.113 17.7671 133.984 17.3298 134.907 17.0406C136.523 16.4458 138.227 16.141 139.944 16.1398C141.913 16.0956 143.866 16.4978 145.663 17.3173C147.19 17.9732 148.548 18.9788 149.632 20.2562C150.716 21.5336 151.497 23.0483 151.913 24.683C152.416 26.4428 152.667 28.267 152.659 30.0998L152.549 51.0664C152.549 51.2114 152.521 51.3552 152.466 51.4891C152.411 51.6231 152.331 51.7447 152.23 51.8471C152.129 51.9492 152.01 52.0303 151.878 52.0852C151.746 52.1403 151.605 52.1681 151.463 52.1674L144.34 52.132C144.198 52.1313 144.057 52.1018 143.925 52.0455C143.794 51.9891 143.674 51.9071 143.574 51.8036C143.474 51.7004 143.394 51.5778 143.34 51.4432C143.287 51.3086 143.259 51.1646 143.26 51.0192L143.358 31.6895C143.424 29.9092 142.917 28.1557 141.914 26.6966C140.874 25.3365 139.268 24.6889 137.033 24.6772C136.166 24.6241 135.299 24.7744 134.498 25.1165C133.696 25.4583 132.983 25.9827 132.412 26.6495C131.256 27.9857 130.605 29.6971 130.575 31.4776L130.476 50.9544C130.473 51.2477 130.357 51.5277 130.153 51.7337C129.948 51.9398 129.672 52.0556 129.385 52.0554L122.256 52.0084C122.114 52.0077 121.973 51.9781 121.841 51.9219C121.71 51.8654 121.59 51.7835 121.49 51.68C121.39 51.5767 121.31 51.4542 121.256 51.3196C121.203 51.1849 121.175 51.0409 121.176 50.8955Z" fill="white"/>
		<path d="M180.658 17.567C182.791 18.4675 184.732 19.7834 186.371 21.4412C187.993 23.1439 189.266 25.1596 190.114 27.3703C191.015 29.7561 191.452 32.2976 191.402 34.8537C191.436 37.3885 190.973 39.9047 190.039 42.2547C189.171 44.4581 187.877 46.4605 186.232 48.1425C183.584 50.6712 180.277 52.3689 176.707 53.0331C173.137 53.697 169.455 53.2992 166.101 51.8871C163.969 50.9837 162.031 49.6659 160.394 48.007C158.766 46.3084 157.493 44.2915 156.65 42.0779C155.738 39.7199 155.298 37.1994 155.356 34.6653C155.332 32.1095 155.797 29.5736 156.725 27.1994C157.59 24.9959 158.883 22.9931 160.527 21.3116C162.179 19.6693 164.132 18.3731 166.274 17.4963C170.917 15.719 176.039 15.7463 180.664 17.5729L180.658 17.567ZM176.614 44.1033C177.678 43.6932 178.637 43.0407 179.416 42.1957C180.24 41.315 180.887 40.2792 181.322 39.1458C181.855 37.7641 182.121 36.2909 182.108 34.8064C182.139 33.3224 181.886 31.8465 181.363 30.4613C180.94 29.3227 180.305 28.2788 179.491 27.3878C178.718 26.5368 177.766 25.8744 176.707 25.4508C174.604 24.5853 172.256 24.5725 170.144 25.4154C169.084 25.833 168.127 26.4846 167.343 27.323C166.518 28.2038 165.872 29.2423 165.442 30.3788C164.403 33.1739 164.386 36.2571 165.396 39.0633C165.817 40.1999 166.449 41.2435 167.256 42.1368C168.033 42.9844 168.983 43.6459 170.04 44.074C172.147 44.935 174.495 44.9456 176.609 44.1033H176.614Z" fill="white"/>
		<path d="M195.204 1.69113C195.728 1.14133 196.358 0.70752 197.053 0.416779C197.749 0.126036 198.496 -0.0153914 199.248 0.00132682C200.013 -0.0103298 200.772 0.137167 201.479 0.4348C202.186 0.732431 202.827 1.17394 203.361 1.73235C204.408 2.87085 204.976 4.38196 204.944 5.94214C204.948 6.70945 204.8 7.46977 204.51 8.17757C204.219 8.88539 203.791 9.52616 203.252 10.0615C202.712 10.5969 202.073 11.0159 201.371 11.2935C200.669 11.571 199.919 11.7014 199.167 11.6769C198.413 11.689 197.664 11.5421 196.968 11.2452C196.272 10.9483 195.644 10.5079 195.123 9.95174C194.597 9.42196 194.183 8.78853 193.905 8.09007C193.627 7.39162 193.491 6.64277 193.506 5.88914C193.493 5.10832 193.637 4.33308 193.929 3.6111C194.221 2.88915 194.655 2.23575 195.204 1.69113ZM195.649 17.3586L202.772 17.394C202.914 17.3947 203.055 17.4241 203.187 17.4805C203.318 17.5368 203.438 17.619 203.538 17.7223C203.638 17.8257 203.718 17.9481 203.772 18.0827C203.825 18.2173 203.853 18.3614 203.852 18.5067L203.684 51.3256C203.678 51.6154 203.56 51.8912 203.356 52.093C203.151 52.2948 202.877 52.4061 202.593 52.403H195.476C195.333 52.4014 195.192 52.371 195.061 52.3136C194.929 52.2561 194.811 52.1725 194.711 52.0679C194.612 51.9635 194.534 51.8399 194.482 51.7041C194.429 51.5686 194.404 51.4239 194.407 51.2783L194.569 18.4597C194.57 18.1681 194.685 17.889 194.887 17.6828C195.089 17.4767 195.363 17.3602 195.649 17.3586Z" fill="white"/>
		<path d="M216.225 44.6643C217.271 45.7359 218.802 46.3129 220.847 46.3248C222.061 46.409 223.266 46.0592 224.255 45.3356C224.613 45.0319 224.902 44.6522 225.101 44.223C225.301 43.7941 225.406 43.3257 225.41 42.851C225.417 42.4666 225.345 42.0849 225.204 41.7288C225.063 41.3726 224.853 41.0494 224.584 40.7784C224.006 40.1366 223.053 39.7009 221.725 39.4124L217.167 38.3291C213.816 37.5283 211.39 36.239 209.848 34.3784C208.345 32.5374 207.539 30.208 207.578 27.8135C207.584 26.286 207.926 24.7791 208.577 23.4033C209.202 21.9964 210.142 20.7582 211.321 19.7883C212.499 18.7055 213.873 17.8657 215.365 17.3154C216.991 16.6792 218.724 16.3732 220.465 16.4146C222.565 16.3692 224.653 16.7432 226.611 17.5156C228.143 18.0728 229.543 18.9536 230.719 20.1004C231.7 21.0532 232.487 22.1961 233.029 23.4623C233.315 24.1161 233.551 24.7912 233.734 25.4818C233.768 25.6254 233.775 25.7744 233.75 25.9202C233.728 26.0658 233.676 26.2054 233.6 26.3306C233.521 26.4556 233.421 26.5638 233.302 26.6484C233.183 26.7333 233.049 26.7931 232.908 26.8243L227.218 28.102C226.952 28.1624 226.672 28.1172 226.434 27.975C226.199 27.8329 226.024 27.6047 225.948 27.3366C225.892 27.1363 225.825 26.9399 225.744 26.7477C225.518 26.1509 225.164 25.6136 224.705 25.1756C224.212 24.6734 223.623 24.2823 222.972 24.0276C222.196 23.7131 221.364 23.5631 220.529 23.5859C219.424 23.559 218.342 23.9047 217.45 24.5693C217.031 24.8338 216.687 25.2048 216.452 25.6454C216.216 26.086 216.096 26.5815 216.104 27.0834C216.081 27.4761 216.15 27.869 216.307 28.2288C216.464 28.5883 216.704 28.9043 217.005 29.1501C217.656 29.6879 218.425 30.0577 219.246 30.2275L224.127 31.3166C227.547 32.0468 230.054 33.4128 231.725 35.3439C233.405 37.1811 234.317 39.6147 234.265 42.1266C234.254 43.5685 233.963 44.9934 233.405 46.3188C232.876 47.7286 232.032 48.9929 230.939 50.0105C229.727 51.1547 228.307 52.0431 226.757 52.6246C222.698 53.9791 218.31 53.9003 214.302 52.401C212.727 51.723 211.274 50.7817 210.004 49.6161C208.945 48.6228 208.116 47.402 207.578 46.0421C207.244 45.3267 206.981 44.5792 206.792 43.8106C206.758 43.6671 206.753 43.5181 206.777 43.3723C206.8 43.2267 206.852 43.0873 206.93 42.9626C207.008 42.838 207.109 42.7305 207.228 42.6465C207.347 42.5625 207.482 42.5038 207.624 42.474L213.47 41.214C213.743 41.1536 214.029 41.2042 214.266 41.3547C214.503 41.5052 214.673 41.7442 214.741 42.0207C214.996 43.0208 215.508 43.9336 216.225 44.6643Z" fill="white"/>
		<path d="M266.792 47.0674C265.873 48.4111 264.733 49.5842 263.425 50.5353C262.032 51.5581 260.497 52.3656 258.873 52.9317C256.992 53.5123 255.034 53.7905 253.067 53.756C250.758 53.7432 248.466 53.323 246.298 52.5137C244.179 51.6905 242.259 50.4182 240.66 48.7807C238.998 47.0969 237.699 45.0773 236.848 42.8517C235.849 40.3402 235.362 37.6477 235.421 34.9384C235.409 32.3302 235.896 29.7448 236.852 27.3256C237.705 25.1745 238.976 23.2201 240.584 21.5791C242.15 19.9942 244.009 18.745 246.054 17.9051C248.057 17.0108 250.223 16.5612 252.409 16.5862C257.787 16.5862 261.906 18.2701 264.892 21.4907C267.878 24.7115 269.323 29.2038 269.294 34.8325C269.303 35.4733 269.278 36.114 269.22 36.7519C269.189 37.021 269.061 37.2689 268.862 37.4481C268.662 37.6273 268.405 37.7254 268.138 37.7234L245.783 37.6116C245.624 37.6092 245.467 37.6426 245.321 37.7093C245.178 37.7761 245.048 37.8744 244.945 37.9976C244.842 38.1208 244.768 38.2655 244.726 38.4216C244.683 38.5778 244.676 38.7415 244.703 38.901C244.817 39.5642 245.024 40.208 245.31 40.8146C245.792 41.748 246.424 42.5921 247.181 43.3111C247.967 44.0434 248.874 44.6258 249.862 45.0303L249.972 45.0715C251.007 45.4472 252.095 45.6461 253.195 45.6602C255.361 45.6602 257.111 45.1833 258.302 44.1883C259.31 43.4092 260.128 42.4012 260.688 41.2445C260.795 41.0055 260.986 40.8146 261.221 40.7064C261.456 40.5982 261.723 40.5803 261.969 40.6556L267.746 42.422C267.887 42.4644 268.019 42.5358 268.131 42.6319C268.246 42.728 268.337 42.8467 268.405 42.9809C268.472 43.1149 268.51 43.2614 268.519 43.4112C268.528 43.5613 268.508 43.7114 268.456 43.8527C268.04 44.9929 267.482 46.0732 266.792 47.0674ZM259.624 28.7269C259.342 27.882 258.867 27.1172 258.237 26.4954C257.574 25.7959 256.763 25.2567 255.87 24.9176C254.812 24.4519 253.67 24.2267 252.519 24.2581C251.408 24.2323 250.306 24.4514 249.284 24.8999C248.404 25.2988 247.597 25.8485 246.898 26.5248C246.282 27.165 245.783 27.9102 245.42 28.7269C245.27 29.0602 245.142 29.4045 245.044 29.7573C245.001 29.9208 244.994 30.0924 245.026 30.2586C245.059 30.4248 245.129 30.5814 245.23 30.7158C245.33 30.8502 245.46 30.9591 245.61 31.0339C245.758 31.1087 245.924 31.1472 246.09 31.1468L258.896 31.2173C259.062 31.2173 259.223 31.1795 259.371 31.1065C259.519 31.0337 259.649 30.9275 259.752 30.7962C259.855 30.6647 259.926 30.5115 259.962 30.348C259.998 30.1845 259.996 30.0147 259.96 29.8514C259.884 29.4663 259.772 29.0896 259.624 28.7269Z" fill="white"/>
		<path d="M279.723 19.5169C279.412 19.6461 279.127 19.8414 278.892 20.0906C278.646 20.378 278.451 20.7077 278.314 21.065C278.16 21.483 278.086 21.9283 278.097 22.3759C278.081 22.8234 278.151 23.2694 278.301 23.6887C278.433 24.0507 278.626 24.3849 278.87 24.6761C279.109 24.9371 279.396 25.1431 279.717 25.2809C280.048 25.4178 280.4 25.4876 280.756 25.4868C281.074 25.4919 281.392 25.4332 281.69 25.314C281.952 25.2197 282.198 25.078 282.413 24.8947C282.604 24.7278 282.765 24.5253 282.884 24.2973C282.949 24.1849 283.009 24.0682 283.059 23.9479C283.094 23.8697 283.155 23.8076 283.229 23.7736C283.305 23.7398 283.39 23.7362 283.466 23.764L285.346 24.4315C285.426 24.4615 285.493 24.5229 285.532 24.6028C285.57 24.6826 285.576 24.7747 285.549 24.8598C285.433 25.2124 285.276 25.5488 285.084 25.862C284.806 26.3088 284.459 26.7051 284.058 27.0348C283.623 27.4031 283.135 27.6938 282.611 27.8954C282.008 28.1042 281.376 28.2057 280.74 28.1951C280.008 28.2043 279.28 28.0482 278.608 27.7373C277.949 27.4622 277.353 27.0507 276.852 26.5275C276.348 25.9981 275.951 25.3685 275.685 24.6761C275.402 23.9407 275.261 23.1538 275.272 22.3612C275.27 21.5612 275.418 20.7687 275.707 20.0281C275.967 19.3447 276.357 18.7238 276.852 18.2029C277.347 17.682 277.938 17.2721 278.59 16.9981C279.264 16.7119 279.985 16.5718 280.713 16.5862C281.363 16.5844 282.008 16.6931 282.622 16.908C283.141 17.1154 283.625 17.4029 284.062 17.7611C284.459 18.0894 284.795 18.4906 285.054 18.9451C285.24 19.2699 285.395 19.6152 285.511 19.9747C285.536 20.0615 285.529 20.1554 285.489 20.2361C285.451 20.3169 285.381 20.3782 285.299 20.4068L283.368 21.0724C283.287 21.0995 283.202 21.0935 283.124 21.0556C283.047 21.0177 282.989 20.9507 282.958 20.8683C282.817 20.509 282.606 20.1828 282.344 19.9085C281.992 19.528 281.455 19.3257 280.756 19.322C280.402 19.3186 280.053 19.3847 279.723 19.5169Z" fill="white"/>
		<path d="M293.448 17.0748C294.095 17.3567 294.684 17.7675 295.181 18.2846C295.676 18.8156 296.062 19.4452 296.319 20.136C296.593 20.8791 296.727 21.671 296.711 22.4674C296.72 23.2588 296.579 24.0446 296.297 24.7784C296.032 25.4663 295.641 26.0917 295.141 26.617C294.639 27.1291 294.046 27.5338 293.396 27.8085C292.704 28.1122 291.958 28.2601 291.208 28.2424C290.457 28.2565 289.711 28.1055 289.021 27.7993C288.374 27.5173 287.785 27.1065 287.288 26.5895C286.793 26.0557 286.407 25.4226 286.154 24.7287C285.876 23.9922 285.744 23.2053 285.762 22.4141C285.753 21.6145 285.892 20.8206 286.172 20.0772C286.436 19.3896 286.828 18.7645 287.328 18.2386C287.834 17.7267 288.43 17.3222 289.082 17.0472C290.495 16.4928 292.052 16.5013 293.457 17.0711L293.448 17.0748ZM292.22 25.3631C292.543 25.2331 292.834 25.0291 293.071 24.7657C293.322 24.4901 293.517 24.1667 293.649 23.8132C293.81 23.3847 293.891 22.9277 293.889 22.4674C293.896 22.0039 293.819 21.5431 293.66 21.1104C293.533 20.755 293.34 20.429 293.094 20.1507C292.858 19.8853 292.567 19.6786 292.245 19.5458C291.609 19.272 290.894 19.2648 290.251 19.5256C289.929 19.6555 289.637 19.859 289.4 20.1213C289.149 20.3971 288.952 20.7212 288.822 21.0755C288.658 21.5069 288.578 21.9669 288.58 22.4305C288.573 22.8939 288.649 23.3545 288.806 23.7874C288.936 24.1427 289.129 24.4684 289.375 24.7473C289.613 25.0121 289.902 25.2186 290.222 25.3521C290.54 25.4858 290.878 25.5557 291.219 25.5579C291.561 25.5586 291.9 25.4925 292.218 25.3631H292.22Z" fill="white"/>
		<path d="M298.002 17.0148L300.038 17.0258C300.082 17.0256 300.125 17.0344 300.165 17.0518C300.206 17.0691 300.244 17.0947 300.273 17.1271C300.304 17.1594 300.329 17.1978 300.345 17.24C300.362 17.2823 300.371 17.3276 300.369 17.3733V17.399C300.371 17.4648 300.389 17.529 300.423 17.5842C300.457 17.6394 300.506 17.6832 300.562 17.7105C300.62 17.7378 300.683 17.7474 300.746 17.7381C300.806 17.7288 300.864 17.7011 300.914 17.6583C301.149 17.4525 301.406 17.2783 301.684 17.1398C301.962 17.001 302.258 16.8979 302.56 16.8328C302.849 16.7664 303.142 16.7306 303.438 16.7261C304.097 16.7126 304.746 16.8772 305.324 17.2042C305.709 17.4287 306.039 17.7433 306.287 18.1234C306.314 18.1681 306.352 18.2052 306.397 18.2317C306.442 18.2582 306.493 18.2733 306.543 18.276C306.594 18.2787 306.646 18.2688 306.693 18.2471C306.74 18.2254 306.78 18.1925 306.814 18.151C307.123 17.734 307.522 17.399 307.978 17.1729C308.559 16.8893 309.195 16.7521 309.835 16.7721C310.315 16.7754 310.787 16.8604 311.24 17.024C311.686 17.1807 312.096 17.431 312.445 17.7594C312.819 18.1248 313.108 18.5752 313.287 19.0758C313.514 19.6702 313.619 20.3067 313.599 20.9457L313.565 27.6933C313.565 27.7849 313.529 27.8723 313.466 27.9366C313.404 28.0011 313.321 28.0371 313.234 28.0371L311.155 28.0262C311.112 28.0259 311.07 28.0167 311.029 27.999C310.989 27.9816 310.953 27.9558 310.922 27.9236C310.893 27.8913 310.868 27.853 310.852 27.8111C310.834 27.769 310.828 27.724 310.828 27.6785L310.857 21.5304C310.879 21.005 310.731 20.4874 310.44 20.0595C310.145 19.6568 309.679 19.4546 309.02 19.4509C308.751 19.4359 308.482 19.4856 308.236 19.5962C307.99 19.7068 307.77 19.8754 307.595 20.0889C307.25 20.5081 307.067 21.0458 307.078 21.5984L307.049 27.6657C307.049 27.7112 307.04 27.756 307.022 27.7979C307.006 27.8398 306.982 27.8776 306.95 27.9097C306.919 27.9415 306.883 27.9668 306.843 27.9838C306.802 28.0011 306.76 28.0098 306.717 28.0096L304.569 27.9874C304.484 27.987 304.399 27.9504 304.338 27.8855C304.276 27.8207 304.242 27.7332 304.242 27.6418L304.274 21.4936C304.294 20.9581 304.139 20.4314 303.834 20.0006C303.541 19.6219 303.073 19.4196 302.43 19.416C301.789 19.4123 301.326 19.6109 300.985 20.0301C300.64 20.4576 300.457 21.0023 300.468 21.5616L300.439 27.629C300.439 27.6742 300.43 27.7193 300.412 27.7612C300.396 27.8028 300.371 27.8409 300.34 27.8727C300.311 27.9047 300.273 27.9301 300.233 27.9471C300.192 27.9643 300.15 27.9731 300.107 27.9728L297.943 27.9616C297.898 27.9614 297.856 27.9522 297.816 27.9348C297.778 27.9171 297.739 27.8915 297.71 27.8593C297.679 27.827 297.657 27.7887 297.639 27.7466C297.623 27.7047 297.614 27.6597 297.614 27.6142L297.666 17.3659C297.666 17.3194 297.672 17.2731 297.69 17.2299C297.706 17.1867 297.73 17.1475 297.762 17.1147C297.793 17.0819 297.831 17.0561 297.872 17.0389C297.914 17.0217 297.959 17.0135 298.002 17.0148Z" fill="white"/>
	</g>
	<defs>
		<linearGradient id="paint0_linear_3029_981" x1="72.4273" y1="35.5104" x2="8.49287" y2="58.8123" gradientUnits="userSpaceOnUse">
			<stop stop-color="#5CEE9C"/>
			<stop offset="1" stop-color="#FFFB1F"/>
		</linearGradient>
		<clipPath id="clip0_3029_981">
			<rect width="313.6" height="56" fill="white"/>
		</clipPath>
	</defs>
</svg>
