<svg width="12" height="8" viewBox="0 0 12 8" fill="none" xmlns="http://www.w3.org/2000/svg">
	<path d="M6.80916 7.31011L11.6614 2.45784C11.7687 2.35145 11.8538 2.22488 11.9119 2.08542C11.97 1.94597 11.9999 1.79639 11.9999 1.64531C11.9999 1.49424 11.97 1.34466 11.9119 1.2052C11.8538 1.06574 11.7687 0.939171 11.6614 0.832784C11.447 0.619638 11.157 0.5 10.8546 0.5C10.5523 0.5 10.2622 0.619638 10.0478 0.832784L5.99663 4.88397L1.94544 0.832784C1.73102 0.619638 1.44097 0.5 1.13864 0.5C0.836301 0.5 0.546251 0.619638 0.331832 0.832784C0.225768 0.939717 0.141855 1.06654 0.0849042 1.20597C0.0279527 1.3454 -0.000914097 1.4947 -4.33922e-05 1.64531C-0.000914097 1.79592 0.0279527 1.94522 0.0849042 2.08465C0.141855 2.22409 0.225768 2.3509 0.331832 2.45784L5.1841 7.31011C5.29049 7.41737 5.41706 7.50251 5.55652 7.56061C5.69598 7.61871 5.84556 7.64862 5.99663 7.64862C6.1477 7.64862 6.29728 7.61871 6.43674 7.56061C6.5762 7.50251 6.70277 7.41737 6.80916 7.31011Z" fill="#343434"/>
</svg>
