<svg width="16" height="16" viewBox="0 0 16 16" fill="none" xmlns="http://www.w3.org/2000/svg">
	<path d="M8.50739 15.8802C8.67092 15.8168 8.82032 15.7218 8.94702 15.6005L15.6082 8.9393C15.7324 8.81508 15.8309 8.66762 15.8982 8.50532C15.9654 8.34303 16 8.16908 16 7.99341C16 7.63864 15.8591 7.29839 15.6082 7.04753C15.484 6.92331 15.3365 6.82478 15.1742 6.75755C15.0119 6.69033 14.838 6.65573 14.6623 6.65573C14.3075 6.65573 13.9673 6.79666 13.7164 7.04753L9.33337 11.4439L9.33337 1.33224C9.33337 0.978905 9.19301 0.640046 8.94317 0.390203C8.69333 0.14036 8.35447 0 8.00114 0C7.64781 0 7.30895 0.14036 7.0591 0.390203C6.80926 0.640046 6.6689 0.978905 6.6689 1.33224L6.6689 11.4439L2.28585 7.04753C2.162 6.92266 2.01465 6.82355 1.85231 6.75591C1.68996 6.68828 1.51583 6.65345 1.33996 6.65345C1.16409 6.65345 0.989959 6.68828 0.827614 6.75591C0.665269 6.82355 0.517923 6.92266 0.394075 7.04753C0.269207 7.17137 0.170094 7.31872 0.102458 7.48107C0.034822 7.64341 6.86228e-07 7.81754 6.86228e-07 7.99341C6.86228e-07 8.16928 0.034822 8.34341 0.102458 8.50576C0.170094 8.6681 0.269207 8.81545 0.394075 8.9393L7.05525 15.6005C7.18195 15.7218 7.33135 15.8168 7.49489 15.8802C7.81924 16.0135 8.18304 16.0135 8.50739 15.8802Z" fill="white"/>
</svg>
