<svg width="12" height="14" viewBox="0 0 12 14" fill="none" xmlns="http://www.w3.org/2000/svg">
	<path d="M5.19078 0.689649L0.338513 5.54192C0.231249 5.64831 0.146112 5.77488 0.0880123 5.91433C0.0299124 6.05379 0 6.20337 0 6.35445C0 6.50552 0.0299124 6.6551 0.0880123 6.79456C0.146112 6.93401 0.231249 7.06058 0.338513 7.16697C0.552931 7.38012 0.842982 7.49976 1.14532 7.49976C1.44765 7.49976 1.7377 7.38012 1.95212 7.16697L6.00331 3.11578L10.0545 7.16697C10.2689 7.38012 10.559 7.49976 10.8613 7.49976C11.1636 7.49976 11.4537 7.38012 11.6681 7.16697C11.7742 7.06004 11.8581 6.93322 11.915 6.79379C11.972 6.65436 12.0009 6.50506 12 6.35445C12.0009 6.20383 11.972 6.05453 11.915 5.9151C11.8581 5.77567 11.7742 5.64885 11.6681 5.54192L6.81584 0.689649C6.70945 0.582386 6.58288 0.497249 6.44342 0.439149C6.30396 0.38105 6.15438 0.351137 6.00331 0.351137C5.85223 0.351137 5.70265 0.38105 5.5632 0.439149C5.42374 0.497249 5.29717 0.582386 5.19078 0.689649Z" fill="#47FC73"/>
	<path d="M5.19078 6.68965L0.338513 11.5419C0.231249 11.6483 0.146112 11.7749 0.0880123 11.9143C0.0299124 12.0538 0 12.2034 0 12.3544C0 12.5055 0.0299124 12.6551 0.0880123 12.7946C0.146112 12.934 0.231249 13.0606 0.338513 13.167C0.552931 13.3801 0.842982 13.4998 1.14532 13.4998C1.44765 13.4998 1.7377 13.3801 1.95212 13.167L6.00331 9.11578L10.0545 13.167C10.2689 13.3801 10.559 13.4998 10.8613 13.4998C11.1636 13.4998 11.4537 13.3801 11.6681 13.167C11.7742 13.06 11.8581 12.9332 11.915 12.7938C11.972 12.6544 12.0009 12.5051 12 12.3544C12.0009 12.2038 11.972 12.0545 11.915 11.9151C11.8581 11.7757 11.7742 11.6489 11.6681 11.5419L6.81584 6.68965C6.70945 6.58239 6.58288 6.49725 6.44342 6.43915C6.30396 6.38105 6.15438 6.35114 6.00331 6.35114C5.85223 6.35114 5.70265 6.38105 5.5632 6.43915C5.42374 6.49725 5.29717 6.58239 5.19078 6.68965Z" fill="#47FC73"/>
</svg>
